<svg xmlns="http://www.w3.org/2000/svg" viewBox="0 0 34.26 34.26"><defs><style>.cls-1{fill:#71b1e2;}.cls-2{fill:#fff;}</style></defs><title>google-icon</title><rect class="cls-1" width="34.26" height="34.26" rx="17.13" ry="17.13"></rect><path class="cls-2" d="M4698.26,5357.08a6.42,6.42,0,1,1,0-12.84,6.16,6.16,0,0,1,4.3,1.68l-1.74,1.68a3.61,3.61,0,0,0-2.56-1,4.06,4.06,0,0,0,0,8.11,3.47,3.47,0,0,0,3.64-2.77h-3.64v-2.2h6.06A6.22,6.22,0,0,1,4698.26,5357.08Z" transform="translate(-4684.79 -5333.91)"></path><polygon class="cls-2" points="27.22 17.66 25.39 17.66 25.39 19.5 23.55 19.5 23.55 17.66 21.72 17.66 21.72 15.83 23.55 15.83 23.55 13.99 25.39 13.99 25.39 15.83 27.22 15.83 27.22 17.66"></polygon></svg>