<svg id="Layer_1" data-name="Layer 1" xmlns="http://www.w3.org/2000/svg" viewBox="0 0 24.79 24.79"><defs><style>.cls-1{fill:#6eb0e1;}.cls-2{fill:#fff;}</style></defs><title>linkedin</title><rect class="cls-1" width="24.79" height="24.79" rx="12.4" ry="12.4"/><rect class="cls-2" x="7.37" y="10.61" width="2.14" height="6.94"/><path class="cls-2" d="M9.49,10.3a1.24,1.24,0,0,1,0-2.47,1.24,1.24,0,1,1,0,2.47Z" transform="translate(-1.02 -0.66)"/><path class="cls-2" d="M18.58,18.27H16.43V14.9c0-.78,0-1.82-1.1-1.82S14,14,14,14.84v3.43H11.89v-7H14v1a2.23,2.23,0,0,1,2-1.1c2.21,0,2.6,1.43,2.6,3.31Z" transform="translate(-1.02 -0.66)"/></svg>