<?xml version="1.0" encoding="UTF-8"?>
<svg width="65px" height="65px" viewBox="0 0 65 65" version="1.1" xmlns="http://www.w3.org/2000/svg" xmlns:xlink="http://www.w3.org/1999/xlink">
    <!-- Generator: Sketch 49.3 (51167) - http://www.bohemiancoding.com/sketch -->
    <title>ic_bestPractices</title>
    <desc>Created with Sketch.</desc>
    <defs></defs>
    <g id="ic_bestPractices" stroke="none" stroke-width="1" fill="none" fill-rule="evenodd">
        <g id="Page-1" transform="translate(5.500000, 7.000000)">
            <path d="M15.4163664,0.229976 C14.1191024,0.260592 13.0745984,1.316488 13.0745984,2.621584 L13.0745984,46.1197999 L17.7581344,46.1197999 L17.7581344,2.621584 C17.7581344,1.316488 16.7143424,0.260592 15.4163664,0.229976 Z M15.3608304,0.22428 C15.3800544,0.22428 15.3978544,0.229976 15.4163664,0.229976 C15.4355904,0.229976 15.4533904,0.22428 15.4719024,0.22428 L15.3608304,0.22428 Z" id="Fill-1"></path>
            <path d="M17.0461344,5.27136765 L17.0461344,41.4372608 L12.3625984,41.4372608 L12.3625984,2.37763587 C12.3625984,1.18843102 13.4362944,0.22428 14.7606144,0.22428 C15.5359824,0.22428 16.1703744,0.555467155 16.6082544,1.06887118" id="Stroke-3" stroke="#323E48" stroke-width="1.60199997"></path>
            <path d="M3.93323045,46.1200847 L34.8425744,46.1200847" id="Stroke-5" stroke="#323E48" stroke-width="1.60199997"></path>
            <path d="M31.0956744,24.577172 L31.0956744,29.260708 C33.5150504,32.733844 48.5019384,31.289908 53.5749384,28.324428 C49.5941464,25.435844 45.4609864,21.37602 45.4609864,21.37602 C45.4609864,21.37602 50.2968904,15.503444 51.7016664,11.464268 C47.8191304,12.567156 41.4623944,12.727356 36.8101864,12.4333" id="Stroke-7" stroke="#8547AD" stroke-width="1.873272"></path>
            <polyline id="Stroke-9" stroke="#8547AD" stroke-width="1.873272" points="36.73564 9.59320319 36.715704 23.6402512 36.715704 24.5772432 32.012232 29.2607792 31.095888 28.3244992 31.095888 24.5772432"></polyline>
            <path d="M36.7154904,6.03185039 C32.1102744,2.4412344 16.0311784,2.1756584 12.3629544,5.84459439 L12.3629544,23.6403224 C17.5356344,21.3918264 28.5872984,20.6171704 35.6916344,23.6403224 L36.7154904,23.6403224 L36.7154904,6.03185039 Z" id="Stroke-11" stroke="#8547AD" stroke-width="1.873272"></path>
            <path d="M17.0461344,5.84480799 L17.0461344,19.893992" id="Stroke-13" stroke="#323E48" stroke-width="1.60199997"></path>
            <path d="M36.7154904,46.1200847 L40.4620344,46.1200847" id="Stroke-15" stroke="#323E48" stroke-width="1.60199997"></path>
            <path d="M42.3353776,46.1200847 L44.2086496,46.1200847" id="Stroke-17" stroke="#323E48" stroke-width="1.60199997"></path>
            <path d="M2.05974485,46.1200847 L0.186472853,46.1200847" id="Stroke-19" stroke="#323E48" stroke-width="1.60199997"></path>
            <path d="M20.7928208,46.1200847 L8.61619684,46.1200847 L8.61619684,43.3105327 C8.61619684,42.2759968 9.45493284,41.4372608 10.4894688,41.4372608 L18.9195488,41.4372608 C19.9540848,41.4372608 20.7928208,42.2759968 20.7928208,43.3105327 L20.7928208,46.1200847 Z" id="Fill-21"></path>
            <path d="M20.7928208,46.1200847 L8.61619684,46.1200847 L8.61619684,43.3105327 C8.61619684,42.2759968 9.45493284,41.4372608 10.4894688,41.4372608 L18.9195488,41.4372608 C19.9540848,41.4372608 20.7928208,42.2759968 20.7928208,43.3105327 L20.7928208,46.1200847 Z" id="Stroke-23" stroke="#323E48" stroke-width="1.60199997"></path>
            <path d="M18.9190504,49.8399992 L24.8115081,49.8399992" id="Stroke-25" stroke="#BCC0C4" stroke-width="1.60199997"></path>
            <path d="M0.781508504,49.8399992 L14.7045088,49.8399992" id="Stroke-27" stroke="#BCC0C4" stroke-width="1.60199997"></path>
        </g>
    </g>
</svg>