<?xml version="1.0" encoding="UTF-8"?>
<svg width="65px" height="65px" viewBox="0 0 65 65" version="1.1" xmlns="http://www.w3.org/2000/svg" xmlns:xlink="http://www.w3.org/1999/xlink">
    <!-- Generator: Sketch 49.3 (51167) - http://www.bohemiancoding.com/sketch -->
    <title>ic_billingFAQs</title>
    <desc>Created with Sketch.</desc>
    <defs></defs>
    <g id="ic_billingFAQs" stroke="none" stroke-width="1" fill="none" fill-rule="evenodd">
        <g id="Group-6" transform="translate(4.500000, 7.500000)">
            <g id="Page-1-Copy-5" transform="translate(0.541015, 0.760427)">
                <path d="M35.2845891,41.4877489 L35.2845891,37.0277333 C35.2845891,37.0277333 37.7717034,36.2641032 38.8883994,34.0167881 C39.2116656,33.3662252 39.420089,32.5913276 39.420089,31.6746274 L39.420089,27.2138353" id="Stroke-3" stroke="#323E48" stroke-width="2.06729995"></path>
                <polyline id="Stroke-5" stroke="#323E48" stroke-width="2.06729995" points="13.5738896 48.7246487 13.5738896 41.4877489 37.351889 41.4877489 37.351889 48.7246487"></polyline>
                <polyline id="Path-2" stroke="#1FB955" stroke-width="2" points="11.2028602 27.2138353 0.166452373 27.2138353 0.166452373 0.390246006 54.9651456 0.390246006 54.9651456 26.7495672 25.0724255 27.2138353"></polyline>
                <path d="M11.7034546,22.0224205 L8.4667383,22.0224205 C8.32268054,21.0838556 7.95898499,20.3506843 7.37565166,19.8229065 C6.79231832,19.2951288 6.0960966,18.9920985 5.28698649,18.9138156 L5.28698649,8.27745199 C6.0957876,8.48625256 6.85261539,8.27413134 7.55746984,7.64108836 C8.26232429,7.00804537 8.55020308,6.28189604 8.4211062,5.46264037 L46.6027468,5.46264037 C46.8828328,6.46868374 47.1859223,7.13422701 47.5120153,7.45927018 C47.8381083,7.78431334 48.5066614,8.08728446 49.5176746,8.36818353 L49.5176746,18.8683611 C48.6664387,18.8359088 47.922128,19.1540906 47.2847426,19.8229065 C46.6473571,20.4917225 46.3897222,21.2248938 46.5118377,22.0224205 L19.4601571,22.0224205" id="Path-3" stroke="#1FB955" stroke-width="2"></path>
                <path d="M38.386259,13.5737096 L41.4876589,13.5737096" id="Stroke-15" stroke="#BCC0C4" stroke-width="2.06729995"></path>
                <path d="M22.8784494,13.5692996 C22.8802494,10.7144997 24.9646493,8.40149978 27.5350493,8.40329978 C30.1054492,8.40419978 32.1871491,10.7189997 32.1853491,13.5737996 C32.1835491,16.4285996 30.0991492,18.7415995 27.5287493,18.7397995 C24.9592493,18.7388995 22.8775494,16.4240996 22.8784494,13.5692996 Z" id="Stroke-19" stroke="#BCC0C4" stroke-width="2.06729995"></path>
                <path d="M27.0136793,33.2172891 C27.0136793,33.2172891 26.6905793,24.9462893 18.7435795,24.9462893 L18.7435795,17.7093895 C18.7435795,12.9924897 11.5066797,11.0322897 11.5066797,14.6070896 L11.5066797,29.5983892 C11.5066797,33.4755891 15.6412796,36.364589 15.6412796,36.364589 L15.6412796,40.4541889 L27.0136793,33.2172891 Z" id="Fill-21"></path>
                <path d="M27.0136793,33.2172891 C27.0136793,33.2172891 26.6905793,24.9462893 18.7435795,24.9462893 L18.7435795,17.7093895 C18.7435795,12.9924897 11.5066797,11.0322897 11.5066797,14.6070896 L11.5066797,29.5983892 C11.5066797,33.4755891 15.6412796,36.364589 15.6412796,36.364589 L15.6412796,40.4541889" id="Stroke-23" stroke="#323E48" stroke-width="2.06729995"></path>
                <path d="M16.6755596,45.6230688 L19.7769595,45.6230688" id="Stroke-25" stroke="#323E48" stroke-width="2.06729995"></path>
            </g>
        </g>
    </g>
</svg>