<?xml version="1.0" encoding="UTF-8"?>
<svg width="40px" height="40px" viewBox="0 0 40 40" version="1.1" xmlns="http://www.w3.org/2000/svg" xmlns:xlink="http://www.w3.org/1999/xlink">
    <!-- Generator: Sketch 49.3 (51167) - http://www.bohemiancoding.com/sketch -->
    <title>ic_community</title>
    <desc>Created with Sketch.</desc>
    <defs></defs>
    <g id="ic_community" stroke="none" stroke-width="1" fill="none" fill-rule="evenodd">
        <g id="Page-1" transform="translate(2.000000, 5.000000)">
            <path d="M30.4597205,9.68888014 L30.4597205,2.56728004 C30.4597205,1.25648002 29.3969204,0.193680003 28.0857204,0.193680003 L13.2493202,0.193680003 C11.9385202,0.193680003 10.8757202,1.25648002 10.8757202,2.56728004 L10.8757202,5.53448008 L2.56732004,5.53448008 C1.25612002,5.53448008 0.193320003,6.5972801 0.193320003,7.90848012 L0.193320003,18.5904803 C0.193320003,19.9012803 1.25612002,20.9640803 2.56732004,20.9640803 L4.94132007,20.9640803 L4.94132007,24.8372804 C4.94132007,25.3708804 5.59052008,25.6332804 5.96132009,25.2496804 L10.1021202,20.9640803 L14.4365202,20.9640803 L14.4361202,20.9644803 L14.4361202,22.7448803 C14.4361202,24.0556804 15.4993202,25.1184804 16.8101203,25.1184804 L25.8921204,25.1184804 L30.0329204,29.4036804 C30.4037205,29.7876804 31.0529205,29.5252804 31.0529205,28.9916804 L31.0529205,25.1184804 L32.8333205,25.1184804 C34.1445205,25.1184804 35.2073205,24.0556804 35.2073205,22.7448803 L35.2073205,12.0628802 C35.2073205,10.7512802 34.1445205,9.68888014 32.8333205,9.68888014 L30.4597205,9.68888014 Z" id="Fill-1"></path>
            <path d="M2.56732004,5.53460008 L16.8101203,5.53460008 C18.1213203,5.53460008 19.1841203,6.5974001 19.1841203,7.90860012 L19.1841203,18.5906003 C19.1841203,19.9014003 18.1213203,20.9642003 16.8101203,20.9642003 L10.1021202,20.9642003 L5.96132009,25.2498004 C5.59052008,25.6334004 4.94132007,25.3710004 4.94132007,24.8374004 L4.94132007,20.9642003 L2.56732004,20.9642003 C1.25612002,20.9642003 0.193320003,19.9014003 0.193320003,18.5906003 L0.193320003,7.90860012 C0.193320003,6.5974001 1.25612002,5.53460008 2.56732004,5.53460008 Z" id="Stroke-3" stroke="#FFFFFF" stroke-width="1.18680002"></path>
            <path d="M10.8757202,7.31504011 L10.8757202,12.6562402 C10.8757202,13.9670402 11.9385202,15.0298402 13.2493202,15.0298402 L17.4037203,15.0298402" id="Stroke-5" stroke="#FFFFFF" stroke-width="1.18680002"></path>
            <path d="M30.4597205,9.68888014 L30.4597205,2.56728004 C30.4597205,1.25648002 29.3969204,0.193680003 28.0857204,0.193680003 L13.2493202,0.193680003 C11.9385202,0.193680003 10.8757202,1.25648002 10.8757202,2.56728004 L10.8757202,5.53448008" id="Stroke-7" stroke="#FFFFFF" stroke-width="1.18680002"></path>
            <path d="M19.1839203,15.0298802 L22.1511203,15.0298802 L25.8687204,19.2122803 C26.2307204,19.6190803 26.9035204,19.3650803 26.9059204,18.8206803 L26.9231204,15.0298802 L28.0859204,15.0298802 C29.3967204,15.0298802 30.4595205,13.9670802 30.4595205,12.6558802 L30.4595205,11.4690802" id="Stroke-9" stroke="#FFFFFF" stroke-width="1.18680002"></path>
            <path d="M14.4362802,20.9642803 L14.4362802,22.7446803 C14.4362802,24.0558804 15.4990802,25.1186804 16.8102803,25.1186804 L25.8918804,25.1186804 L30.0330804,29.4038804 C30.4034805,29.7878804 31.0530805,29.5250804 31.0530805,28.9914804 L31.0530805,25.1186804 L32.8334805,25.1186804 C34.1446805,25.1186804 35.2070805,24.0558804 35.2070805,22.7446803 L35.2070805,12.0626802 C35.2070805,10.7514802 34.1446805,9.68908014 32.8334805,9.68908014 L19.1838803,9.68908014" id="Stroke-11" stroke="#FFFFFF" stroke-width="1.18680002"></path>
            <path d="M17.4036403,9.68888014 L16.8100403,9.68888014 C15.4992402,9.68888014 14.4364402,10.7512802 14.4364402,12.0628802 L14.4364402,13.2492802" id="Stroke-15" stroke="#FFFFFF" stroke-width="1.18680002"></path>
        </g>
    </g>
</svg>