<?xml version="1.0" encoding="UTF-8"?>
<svg width="40px" height="40px" viewBox="0 0 40 40" version="1.1" xmlns="http://www.w3.org/2000/svg" xmlns:xlink="http://www.w3.org/1999/xlink">
    <!-- Generator: Sketch 49.3 (51167) - http://www.bohemiancoding.com/sketch -->
    <title>ic_contactUs</title>
    <desc>Created with Sketch.</desc>
    <defs></defs>
    <g id="ic_contactUs" stroke="none" stroke-width="1" fill="none" fill-rule="evenodd">
        <path d="M14.6416486,20.3230478 C14.6416486,30.7358009 17.6800281,34.6635624 19.9060506,36.5517019 C22.2948527,36.0880114 24.8757037,34.2368439 25.8154087,33.2524644 C25.7121952,30.8795809 24.5362802,27.9202803 23.0296712,26.2858098 C22.2440162,26.1682183 20.4000376,26.2565403 19.6200311,26.4188063 C19.0731536,25.1586773 18.5868691,22.8453598 18.5868691,20.4031538 C18.5868691,17.9604343 19.0731536,15.4874183 19.6200311,14.2267758 C20.4005511,14.3895553 22.2440162,14.4778773 23.0296712,14.3602858 C24.5362802,12.7258152 25.7121952,9.76651472 25.8154087,7.3936312 C24.8757037,6.4092517 22.2948527,4.55808418 19.9060506,4.09439368 C17.6800281,5.98253319 14.6416486,9.90978122 14.6416486,20.3230478 Z" id="Stroke-3-Copy" stroke="#FFFFFF" stroke-width="1.38388251" transform="translate(20.228529, 20.323048) rotate(-37.000000) translate(-20.228529, -20.323048) "></path>
    </g>
</svg>