<?xml version="1.0" encoding="UTF-8"?>
<svg width="32px" height="32px" viewBox="0 0 32 32" version="1.1" xmlns="http://www.w3.org/2000/svg" xmlns:xlink="http://www.w3.org/1999/xlink">
    <!-- Generator: Sketch 49.3 (51167) - http://www.bohemiancoding.com/sketch -->
    <title>Page 1 Copy</title>
    <desc>Created with Sketch.</desc>
    <defs></defs>
    <g id="Symbols" stroke="none" stroke-width="1" fill="none" fill-rule="evenodd">
        <g id="footer" transform="translate(-166.000000, -111.000000)">
            <g id="Page-1-Copy" transform="translate(167.000000, 112.085247)">
                <path d="M5.51883509,6.3050901 L1.04253502,10.1510102 C0.520085009,10.5655302 0.155015003,11.2698702 0.155015003,11.9716302 L0.155015003,23.4036104" id="Stroke-12" stroke="#FFFFFF" stroke-width="1.22120002"></path>
                <path d="M29.4667395,23.4034814 L29.4667395,11.9715012 C29.4667395,11.2697412 29.1016695,10.5658312 28.5796495,10.1513112 C27.1080734,8.88695155 26.0043913,7.93868183 25.2686033,7.30650202" id="Stroke-14" stroke="#FFFFFF" stroke-width="1.22120002"></path>
                <path d="M23.9708234,0.428301392 L8.70453314,0.428301392 C7.01807312,0.428301392 5.65110309,1.66799165 5.65110309,3.19742392 L5.65110309,17.8728764" id="Fill-16"></path>
                <path d="M23.9708234,0.428301392 L8.70453314,0.428301392 C7.01807312,0.428301392 5.65110309,1.60691348 5.65110309,3.06099232 L5.65110309,17.0134015" id="Stroke-18" stroke="#FFFFFF" stroke-width="1.22120002"></path>
                <path d="M28.8561825,13.0221632 C27.9706691,13.7356766 23.2889724,17.2520966 14.8110922,23.5714234 C6.33321211,17.2520966 1.65151536,13.7356766 0.766002013,13.0221632 L0.154972003,13.0221632 L0.154972003,27.6782835 C0.154972003,28.6900735 0.975412016,29.5100835 1.98720203,29.5100835 L14.8110922,29.5100835 L27.6349825,29.5100835 C28.6467725,29.5100835 29.4667825,28.6900735 29.4667825,27.6782835 L29.4667825,13.0221632 L28.8561825,13.0221632 Z" id="Stroke-24" stroke="#FFFFFF" stroke-width="1.22120002"></path>
                <path d="M20.6221553,19.8811793 L27.7734855,27.3244795" id="Stroke-26" stroke="#FFFFFF" stroke-width="1.22120002"></path>
                <path d="M2.08279103,27.3243075 L9.23412115,19.8810073" id="Stroke-28" stroke="#FFFFFF" stroke-width="1.22120002"></path>
                <path d="M27.921298,3.49667406 C27.921298,1.66444403 26.5543279,0.443244007 24.8678679,0.443244007 L8.38037764,0.443244007 C10.0668377,0.443244007 11.4338077,1.66444403 11.4338077,3.49667406 L27.921298,3.49667406 Z" id="Stroke-36" stroke="#FFFFFF" stroke-width="1.22120002"></path>
                <polygon id="Fill-20" fill="#FFFFFF" points="25.7429199 15.6122561 24.6179199 16.4247561 24.6179199 3.42475611 25.7429199 3.42475611"></polygon>
                <path d="M9.11791992,7.11225611 L13.1179199,7.11225611" id="Line-2" stroke="#FFFFFF" stroke-linecap="square"></path>
                <path d="M9.11791992,10.1122561 L17.1179199,10.1122561" id="Line-2-Copy" stroke="#FFFFFF" stroke-linecap="square"></path>
                <path d="M9.11791992,13.1122561 L17.1179199,13.1122561" id="Line-2-Copy-2" stroke="#FFFFFF" stroke-linecap="square"></path>
            </g>
        </g>
    </g>
</svg>