<?xml version="1.0" encoding="UTF-8"?>
<svg width="40px" height="40px" viewBox="0 0 40 40" version="1.1" xmlns="http://www.w3.org/2000/svg" xmlns:xlink="http://www.w3.org/1999/xlink">
    <!-- Generator: Sketch 49.3 (51167) - http://www.bohemiancoding.com/sketch -->
    <title>ic_docs</title>
    <desc>Created with Sketch.</desc>
    <defs></defs>
    <g id="ic_docs" stroke="none" stroke-width="1" fill="none" fill-rule="evenodd">
        <g id="Group-4" transform="translate(6.000000, 5.500000)">
            <g id="Page-1" transform="translate(0.040000, 0.000000)">
                <path d="M20.6180403,0.167960003 L4.71244007,0.167960003 L0.168040003,4.71236007 L0.168040003,26.8663604 C0.168040003,27.4939604 0.67644001,28.0027604 1.30404002,28.0027604 L20.6180403,28.0027604 C21.2452403,28.0027604 21.7540403,27.4939604 21.7540403,26.8663604 L21.7540403,1.30436002 C21.7540403,0.67636001 21.2452403,0.167960003 20.6180403,0.167960003" id="Fill-1"></path>
                <path d="M21.7541603,3.00820004 L21.7541603,1.30420002 C21.7541603,0.67660001 21.2453603,0.167800003 20.6181603,0.167800003 L4.71256007,0.167800003 L0.168160003,4.71260007 L0.168160003,26.8666004 C0.168160003,27.4942004 0.67656001,28.0026004 1.30416002,28.0026004 L20.6181603,28.0026004 C21.2453603,28.0026004 21.7541603,27.4942004 21.7541603,26.8666004 L21.7541603,21.7538003" id="Stroke-3" stroke="#FFFFFF" stroke-width="1.13600002"></path>
                <polyline id="Stroke-5" stroke="#FFFFFF" stroke-width="1.13600002" points="1.87212003 5.28044008 5.28052008 5.28044008 5.28052008 1.87204003"></polyline>
            </g>
            <path d="M27.2044,10.8903908 L26.2688,8.63199075 L24.5228,9.35479076 C24.1712,8.86279076 23.746,8.44279075 23.2676,8.10119075 L23.9912,6.35399072 L21.7327999,5.41839071 L21.0087999,7.16559073 C20.4295999,7.06879073 19.8315999,7.06479073 19.2351999,7.16439073 L18.5119999,5.41799071 L16.2531999,6.35359072 L16.9763999,8.09959075 C16.4839999,8.45119075 16.0639999,8.87719076 15.7227998,9.35519076 L13.9755998,8.63159075 L13.0399998,10.8899908 L14.7875998,11.6139908 C14.6903998,12.1931908 14.6867998,12.7911908 14.7863998,13.3875908 L13.0399998,14.1107908 L13.9755998,16.3691909 L15.7215998,15.6463909 C16.0731999,16.1383909 16.4987999,16.5587909 16.9771999,16.8995909 L16.2531999,18.6471909 L18.5119999,19.5823909 L19.2355999,17.8351909 C19.8147999,17.9319909 20.4127999,17.9363909 21.0095999,17.8367909 L21.7327999,19.5827909 L23.9912,18.6475909 L23.268,16.9011909 C23.7604,16.5495909 24.1804,16.1243909 24.5216,15.6463909 L26.2688,16.3695909 L27.2044,14.1115908 L25.4572,13.3875908 C25.554,12.8079908 25.558,12.2099908 25.4584,11.6135908 L27.2044,10.8903908 Z" id="Stroke-9" stroke="#FFFFFF" stroke-width="1.07800002" stroke-linejoin="round"></path>
            <path d="M22.3161199,11.5919508 C22.81812,12.8035508 22.2425199,14.1927508 21.0309199,14.6943508 C19.8193199,15.1963509 18.4301199,14.6207508 17.9285199,13.4091508 C17.4265199,12.1975508 18.0017199,10.8083508 19.2137199,10.3067508 C20.4249199,9.80475077 21.8141199,10.3803508 22.3161199,11.5919508 Z" id="Stroke-15" stroke="#FFFFFF" stroke-width="1.07800002"></path>
        </g>
    </g>
</svg>