<?xml version="1.0" encoding="UTF-8"?>
<svg width="65px" height="65px" viewBox="0 0 65 65" version="1.1" xmlns="http://www.w3.org/2000/svg" xmlns:xlink="http://www.w3.org/1999/xlink">
    <!-- Generator: Sketch 49.3 (51167) - http://www.bohemiancoding.com/sketch -->
    <title>ic_productUpdates</title>
    <desc>Created with Sketch.</desc>
    <defs></defs>
    <g id="ic_productUpdates" stroke="none" stroke-width="1" fill="none" fill-rule="evenodd">
        <g id="Group-3" transform="translate(-1.000000, -1.000000)">
            <g id="Page-1-Copy" transform="translate(33.599998, 34.083503) rotate(17.000000) translate(-33.599998, -34.083503) translate(6.800000, 6.883505)" fill="#323E48">
                <path d="M4.28087974,41.0627176 C3.3432798,39.6443176 2.54327985,38.1227177 1.90167989,36.5435178 C1.27367992,34.9939179 0.793679953,33.373918 0.476079972,31.7283181 C0.16007999,30.1011182 7.99999952e-05,28.4315183 7.99999952e-05,26.7683184 C7.99999952e-05,25.1043185 0.16007999,23.4355186 0.476079972,21.8075187 C0.793679953,20.1627188 1.27367992,18.5435189 1.90167989,16.992319 C2.54327985,15.4123191 3.3440798,13.8915192 4.28087974,12.4739193 L5.46487967,13.2555192 C4.58087973,14.5963191 3.82407977,16.033119 3.21847981,17.525919 C2.62487984,18.9907189 2.17047987,20.5219188 1.86967989,22.0771187 C1.57127991,23.6163186 1.42007992,25.1947185 1.42007992,26.7683184 C1.42007992,28.3411183 1.57127991,29.9195182 1.86967989,31.4587181 C2.17047987,33.013918 2.62487984,34.5451179 3.21847981,36.0091179 C3.82407977,37.5027178 4.58087973,38.9395177 5.46487967,40.2795176 L4.28087974,41.0627176 Z" id="Fill-1"></path>
                <path d="M48.7383171,36.0087179 C49.3319171,34.5455179 49.785517,33.015118 50.087917,31.4591181 C50.385517,29.9159182 50.536717,28.3375183 50.536717,26.7679184 C50.536717,25.1983185 50.385517,23.6199186 50.087917,22.0767187 C49.785517,20.5223188 49.3319171,18.9903189 48.7383171,17.526319 C48.1343171,16.035119 47.3775172,14.5991191 46.4911172,13.2559192 L47.6759172,12.4735193 C48.6151171,13.8943192 49.4159171,15.4151191 50.055117,16.992719 C50.682317,18.5415189 51.163117,20.1615188 51.4815169,21.8071187 C51.7967169,23.4383186 51.9575169,25.1079185 51.9575169,26.7679184 C51.9575169,28.4271183 51.7967169,30.0967182 51.4815169,31.7279181 C51.163117,33.375118 50.682317,34.9943179 50.055117,36.5431178 L48.7383171,36.0087179 Z" id="Fill-3"></path>
                <polygon id="Fill-5" points="48.8308771 37.7947177 47.0484772 33.805118 48.3460771 33.225118 49.549277 35.9195179 52.2428769 34.7171179 52.8212769 36.0139179"></polygon>
                <polygon id="Fill-7" points="5.47423967 15.9368791 4.72303972 13.0840792 1.87023989 13.8360792 1.50783991 12.4624793 5.73423966 11.3488793 6.84783959 15.5752791"></polygon>
                <path d="M25.9461727,2.66184977 L25.2357727,2.60584977 L25.3349727,1.19944986 L26.7413727,1.28424985 L26.6565727,2.70504977 L25.9461727,2.66184977 Z M21.9685729,1.28424985 L23.3885729,1.19944986 L23.4885729,2.61944977 L22.0685729,2.70504977 L21.9685729,1.28424985 Z M29.0989725,3.06024975 L28.4037726,2.93224975 L28.6733725,1.54104984 L30.0653725,1.81064982 L29.7957725,3.20264974 L29.0989725,3.06024975 Z M18.6589731,1.81064982 L20.0509731,1.54104984 L20.320573,2.93224975 L19.6253731,3.07384975 L18.9285731,3.20264974 L18.6589731,1.81064982 Z M15.4341733,2.76184976 L16.1021733,2.53464978 L16.1157733,2.53464978 L16.7837733,2.30744979 L17.2381732,3.65624971 L15.8893733,4.11144968 L15.4341733,2.76184976 Z M12.3669735,4.11144968 L13.0053735,3.7986497 L13.6453734,3.50024972 L14.2557734,4.76424965 L12.9917735,5.38984961 L12.3669735,4.11144968 Z M9.49737369,5.85784958 L10.0797737,5.4746496 L10.0941737,5.4746496 L10.6765736,5.07704963 L11.4573736,6.25624956 L10.8613736,6.65304953 L10.8749736,6.65304953 L10.2789736,7.05144951 L9.49737369,5.85784958 Z" id="Fill-11" transform="translate(19.781373, 4.125450) rotate(-4.000000) translate(-19.781373, -4.125450) "></path>
                <path d="M27.2382875,46.0287386 L26.5278876,45.9727386 L26.6270876,44.5663387 L28.0334875,44.6511387 L27.9486875,46.0719386 L27.2382875,46.0287386 Z M23.2606878,44.6511387 L24.6806877,44.5663387 L24.7806877,45.9863386 L23.3606878,46.0719386 L23.2606878,44.6511387 Z M30.3910873,46.4271386 L29.6958874,46.2991386 L29.9654874,44.9079387 L31.3574873,45.1775387 L31.0878873,46.5695386 L30.3910873,46.4271386 Z M19.951088,45.1775387 L21.3430879,44.9079387 L21.6126879,46.2991386 L20.9174879,46.4407386 L20.220688,46.5695386 L19.951088,45.1775387 Z M33.4590872,47.2367386 L32.7774872,47.0095386 L33.2318872,45.6599387 L33.8998871,45.8871386 L34.5814871,46.1135386 L34.1262871,47.4639386 L33.4590872,47.2367386 Z M16.7262882,46.1287386 L17.3942881,45.9015386 L17.4078881,45.9015386 L18.0758881,45.6743387 L18.5302881,47.0231386 L17.1814881,47.4783386 L16.7262882,46.1287386 Z M36.399887,48.4303385 L35.760687,48.1167385 L36.371087,46.8391386 L37.6494869,47.4639386 L37.0390869,48.7423385 L36.399887,48.4303385 Z M13.6590883,47.4783386 L14.2974883,47.1655386 L14.9374883,46.8671386 L15.5478882,48.1311385 L14.2838883,48.7567385 L13.6590883,47.4783386 Z M39.1550868,50.0071384 L38.5582869,49.6087384 L39.3398868,48.4151385 L39.9366868,48.8135385 L40.5334867,49.1967384 L39.7518868,50.3895384 L39.1550868,50.0071384 Z M10.7894885,49.2247384 L11.3718885,48.8415385 L11.3862885,48.8415385 L11.9686884,48.4439385 L12.7494884,49.6231384 L12.1534884,50.0199384 L12.1670884,50.0199384 L11.5710885,50.4183384 L10.7894885,49.2247384 Z M41.6838867,51.9095383 L41.1438867,51.4551383 L42.0678866,50.3759384 L43.1462866,51.2991383 L42.2230866,52.3783383 L41.6838867,51.9095383 Z" id="Fill-11" transform="translate(26.967888, 48.472338) rotate(-186.000000) translate(-26.967888, -48.472338) "></path>
            </g>
            <g id="Group-2" transform="translate(16.147655, 16.110286)" stroke-width="1.43999997">
                <path d="M32.3655034,17.3321565 C32.3655034,26.2284764 25.1539835,33.4399962 16.2576637,33.4399962 C7.36230389,33.4399962 0.149824029,26.2284764 0.149824029,17.3321565 C0.149824029,8.43583671 7.36230389,1.22527685 16.2576637,1.22527685 C18.2842237,1.22527685 20.2234236,1.59871685 22.0090236,2.28127683" id="Stroke-13" stroke="#BCC0C4"></path>
                <polygon id="Stroke-15" stroke="#0075C9" points="33.3996793 0.5327969 17.2787197 15.8547166 11.2278398 9.80383668 6.3875199 14.6441566 17.2787197 25.5353564 38.2399992 5.3731168"></polygon>
            </g>
        </g>
    </g>
</svg>