<?xml version="1.0" encoding="UTF-8"?>
<svg width="65px" height="65px" viewBox="0 0 65 65" version="1.1" xmlns="http://www.w3.org/2000/svg" xmlns:xlink="http://www.w3.org/1999/xlink">
    <!-- Generator: Sketch 49.3 (51167) - http://www.bohemiancoding.com/sketch -->
    <title>ic_troobleshoot</title>
    <desc>Created with Sketch.</desc>
    <defs></defs>
    <g id="ic_troobleshoot" stroke="none" stroke-width="1" fill="none" fill-rule="evenodd">
        <g id="Page-1" transform="translate(6.000000, 8.500000)">
            <path d="M33.346556,13.0181104 L31.1590363,7.73619108 L27.9449567,8.80627095 C27.0534368,7.5582711 25.9737569,6.49267123 24.760957,5.62739133 L25.8323169,2.41011171 L20.5503976,0.222591973 L19.0329577,3.25427161 C17.5635179,3.00851164 16.0473581,2.99891164 14.5343983,3.25171161 L13.0182384,0.222591973 L7.73631908,2.41011171 L8.80639895,5.62419133 C7.5577591,6.51507122 6.49279923,7.59475109 5.62687933,8.80755095 L2.41023971,7.73619108 L0.222079974,13.0181104 L3.25439961,14.5355503 C3.00927964,16.0049901 2.99903964,17.5217899 3.25183961,19.0341097 L0.222079974,20.5509096 L2.41023971,25.8321889 L5.62431933,24.762749 C6.51519922,26.0113889 7.59487909,27.0763488 8.80767895,27.9409887 L7.73631908,31.1589083 L13.0182384,33.346428 L14.5356783,30.3141084 C16.0051181,30.5598684 17.5212779,30.5701084 19.0348777,30.3173084 L20.5503976,33.346428 L25.8323169,31.1589083 L24.762237,27.9448287 C26.0108769,27.0539488 27.0764768,25.9736289 27.9417567,24.761469 L31.1590363,25.8321889 L33.346556,20.5509096 L30.3142364,19.0328297 C30.5599964,17.5640299 30.5702364,16.0465901 30.3174364,14.5342703 L33.346556,13.0181104 Z" id="Stroke-1" stroke="#F42534" stroke-width="1.72479979" stroke-linejoin="round"></path>
            <path d="M21.8522214,18.8843497 C20.6925415,21.6837094 17.4816619,23.0117093 14.6816622,21.8520294 C11.8810226,20.6910695 10.5517427,17.4821099 11.7120626,14.6833902 C12.8717425,11.8840306 16.0819821,10.5553907 18.8826217,11.7157106 C21.6826214,12.8760305 23.0119013,16.0856301 21.8522214,18.8843497" id="Fill-3"></path>
            <path d="M21.8522214,18.8843497 C20.6925415,21.6837094 17.4816619,23.0117093 14.6816622,21.8520294 C11.8810226,20.6910695 10.5517427,17.4821099 11.7120626,14.6833902 C12.8717425,11.8840306 16.0819821,10.5553907 18.8826217,11.7157106 C21.6826214,12.8760305 23.0119013,16.0856301 21.8522214,18.8843497 Z" id="Stroke-5" stroke="#323E48" stroke-width="1.72479979"></path>
            <path d="M37.6424915,15.4899822 C38.4424914,13.5610224 40.6549712,12.6471025 42.5852109,13.4464624 C44.5148107,14.2458223 45.4306506,16.457662 44.6312907,18.3853418 C44.2997707,19.1847017 43.7250508,19.8099816 43.0293709,20.2112616" id="Stroke-7" stroke="#BCC0C4" stroke-width="1.72479979" stroke-linejoin="round"></path>
            <path d="M51.7606338,33.7431 L50.263674,30.1296604 L47.4700743,31.2861403 C46.9075144,30.4989404 46.2271945,29.8269404 45.4617546,29.2803805 L46.6195144,26.4848608 L43.0060749,24.987901 L41.847675,27.7834207 C40.9209551,27.6285407 39.9641552,27.6221407 39.0099153,27.7815007 L37.8527955,24.987261 L34.2387159,26.4842208 L35.3958358,29.2778205 C34.6079959,29.8403804 33.935996,30.5219804 33.390076,31.2867803 L30.5945564,30.1290204 L29.0975965,33.74246 L31.8937562,34.9008598 C31.7382362,35.8275797 31.7324762,36.7843796 31.8918362,37.7386195 L29.0975965,38.8957394 L30.5945564,42.5091789 L33.388156,41.3526991 C33.950716,42.139899 34.6316759,42.8125389 35.3971158,43.3578188 L34.2387159,46.1539785 L37.8527955,47.6502983 L39.0105553,44.8547787 C39.9372752,45.0096586 40.8940751,45.0166986 41.848955,44.8573387 L43.0060749,47.6509383 L46.6195144,46.1546185 L45.4623946,43.3603788 C46.2502345,42.7978189 46.9222344,42.117499 47.4681543,41.3526991 L50.263674,42.5098189 L51.7606338,38.8970194 L48.9651142,37.7386195 C49.1199941,36.8112596 49.1263941,35.8544597 48.9670342,34.9002198 L51.7606338,33.7431 Z" id="Stroke-9" stroke="#323E48" stroke-width="1.72479979" stroke-linejoin="round"></path>
            <path d="M47.7468743,22.2043494 L50.422714,23.5054692 L52.1046338,20.0469096 L49.4281541,18.7457898 C49.6355141,17.8446699 49.6975941,16.90579 49.5977541,15.9598701 L52.4073538,14.9883502 L51.1510339,11.3531506 L48.3414342,12.3240305 C47.8358343,11.5182706 47.2067144,10.8187507 46.4879945,10.2376308 L47.7891143,7.5617911 L44.3305547,5.8798713 L43.0294349,8.55571098 C42.128955,8.348991 41.1900751,8.28627101 40.2435152,8.386751 L39.2726353,5.57651134 L35.6374358,6.83219119 L36.6089556,9.64307085" id="Stroke-11" stroke="#BCC0C4" stroke-width="1.72479979" stroke-linejoin="round"></path>
            <path d="M43.9393868,34.8655958 C44.7425867,36.8041556 43.8216268,39.0268753 41.883067,39.8294353 C39.9445072,40.6326352 37.7217875,39.7116753 36.9192276,37.7731155 C36.1160277,35.8345557 37.0363476,33.611836 38.9755474,32.8092761 C40.9134671,32.0060762 43.1361869,32.9270361 43.9393868,34.8655958" id="Fill-13"></path>
            <path d="M43.9393868,34.8655958 C44.7425867,36.8041556 43.8216268,39.0268753 41.883067,39.8294353 C39.9445072,40.6326352 37.7217875,39.7116753 36.9192276,37.7731155 C36.1160277,35.8345557 37.0363476,33.611836 38.9755474,32.8092761 C40.9134671,32.0060762 43.1361869,32.9270361 43.9393868,34.8655958 Z" id="Stroke-15" stroke="#323E48" stroke-width="1.72479979"></path>
        </g>
    </g>
</svg>