<svg id="Layer_1" data-name="Layer 1" xmlns="http://www.w3.org/2000/svg" viewBox="0 0 24.79 24.79"><defs><style>.cls-1{fill:#6eb0e1;}.cls-2{fill:#fff;stroke:#f2f2f2;stroke-miterlimit:10;stroke-width:0.25px;}</style></defs><title>email</title><rect class="cls-1" width="24.79" height="24.79" rx="12.4" ry="12.4"/><path class="cls-2" d="M18.46,18.55H8.53a.94.94,0,0,1-.95-.95V8.5a1,1,0,0,1,.95-1h9.93a1,1,0,0,1,.95,1v9.1A1,1,0,0,1,18.46,18.55ZM8.53,8A.53.53,0,0,0,8,8.5v9.1a.52.52,0,0,0,.53.53h9.93A.53.53,0,0,0,19,17.6V8.5A.53.53,0,0,0,18.46,8Z" transform="translate(-1.1 -0.66)"/><path class="cls-2" d="M13.49,14a2.72,2.72,0,0,1-1.58-.52l-2.71-2a.21.21,0,0,1,0-.29.22.22,0,0,1,.29,0l2.71,2a2.24,2.24,0,0,0,2.67,0l2.71-2a.22.22,0,0,1,.29,0,.2.2,0,0,1,0,.29l-2.7,2A2.75,2.75,0,0,1,13.49,14Z" transform="translate(-1.1 -0.66)"/><path class="cls-2" d="M9.82,15.15a.2.2,0,0,1-.15-.06.22.22,0,0,1,0-.3l1.89-1.89a.21.21,0,0,1,.29,0,.22.22,0,0,1,0,.3L10,15.09A.24.24,0,0,1,9.82,15.15Z" transform="translate(-1.1 -0.66)"/><path class="cls-2" d="M17.3,15.15a.22.22,0,0,1-.15-.06L15.27,13.2a.2.2,0,0,1,0-.3.21.21,0,0,1,.29,0l1.89,1.89a.22.22,0,0,1,0,.3A.22.22,0,0,1,17.3,15.15Z" transform="translate(-1.1 -0.66)"/></svg>