<svg id="Layer_1" data-name="Layer 1" xmlns="http://www.w3.org/2000/svg" viewBox="0 0 24.79 24.79"><defs><style>.cls-1{fill:#6eb0e1;}.cls-2{fill:#fff;}</style></defs><title>twitter</title><rect class="cls-1" width="24.79" height="24.79" rx="12.4" ry="12.4"/><g id="layer1"><path id="path3611" class="cls-2" d="M10.73,18.1a7.51,7.51,0,0,0,7.56-7.56c0-.12,0-.23,0-.35a5.41,5.41,0,0,0,1.33-1.37,5.59,5.59,0,0,1-1.53.42,2.67,2.67,0,0,0,1.17-1.47,5.38,5.38,0,0,1-1.69.64A2.65,2.65,0,0,0,13,10.23a2.48,2.48,0,0,0,.07.61A7.57,7.57,0,0,1,7.56,8.06,2.74,2.74,0,0,0,7.2,9.4a2.65,2.65,0,0,0,1.19,2.21,2.74,2.74,0,0,1-1.21-.34v0a2.66,2.66,0,0,0,2.13,2.6,2.63,2.63,0,0,1-.7.1,2.83,2.83,0,0,1-.5,0A2.67,2.67,0,0,0,10.6,15.8a5.36,5.36,0,0,1-3.3,1.14,4.49,4.49,0,0,1-.64,0,7.48,7.48,0,0,0,4.07,1.2" transform="translate(-0.74 -0.66)"/></g></svg>